<svg version="1.2" xmlns="http://www.w3.org/2000/svg" viewBox="0 0 578 48" width="578" height="48">
	<title>google-svg</title>
	<style>
		.s0 { fill: #ffffff } 
		.s1 { fill: #ffc107 } 
		.s2 { fill: #ff3d00 } 
		.s3 { fill: #4caf50 } 
		.s4 { fill: #1976d2 } 
		.s5 { fill: #000000 } 
	</style>
	<path id="Layer 1" class="s0" d="m0 20c0-11 9-20 20-20h18c11 0 20 9 20 20v8c0 11-9 20-20 20h-18c-11 0-20-9-20-20z"/>
	<path id="Layer" class="s1" d="m49 24c0 11-9 20-20 20-11 0-20-9-20-20 0-11 9-20 20-20 5.3 0 10 2.1 13.6 5.4l-5.6 5.6c-2.2-1.8-4.9-3-8-3-6.6 0-12 5.4-12 12 0 6.6 5.4 12 12 12 5.2 0 9.7-3.3 11.3-8h-11.3v-8h18v0.1h1.6q0.4 1.9 0.4 3.9z"/>
	<path id="Layer" class="s2" d="m29 4c5.3 0 10 2.1 13.6 5.4l-5.6 5.6c-2.2-1.8-4.9-3-8-3-5 0-9.3 3.1-11.1 7.5l-6.6-4.8c3.4-6.4 10-10.7 17.7-10.7z"/>
	<path id="Layer" class="s3" d="m11.2 33.1l6.5-5c1.7 4.6 6.1 7.9 11.3 7.9 2.7 0 5.2-0.9 7.2-2.4l6.2 5.2c-3.5 3.2-8.2 5.2-13.4 5.2-7.8 0-14.5-4.4-17.8-10.9z"/>
	<path id="Layer" class="s4" d="m49 24c0 10-7 15.2-6.6 14.8l-6.2-5.2q0 0 0 0c1.9-1.4 3.3-3.4 4.1-5.6h-11.3v-8h18v0.1h1.6q0.4 1.9 0.4 3.9z"/>
	<path id="Login dengan Google" class="s5" aria-label="Login dengan Google"  d="m72.3 38h22.8v-5.1h-16.8v-27.1h-6zm37.8 0.3c7.7 0 13.1-5.2 13.1-12.6 0-7.3-5.4-12.5-13.1-12.5-7.5 0-13 5.2-13 12.5 0 7.4 5.5 12.6 13 12.6zm0-4.9c-4.1 0-7.2-3-7.2-7.7 0-4.7 3.1-7.7 7.2-7.7 4.2 0 7.4 3 7.4 7.7 0 4.7-3.2 7.7-7.4 7.7zm37.6-20v3.3c-2.1-2.4-5.1-3.5-8.5-3.5-7.1 0-12.5 4.7-12.5 11.8 0 7.1 5.4 11.9 12.5 11.9 3.3 0 6.2-1.1 8.2-3.3v1.3c0 5-2.4 7.5-7.8 7.5-3.4 0-6.9-1.2-9.1-3l-2.6 4.3c2.8 2.3 7.4 3.5 12 3.5 8.6 0 13.2-4 13.2-12.9v-20.9zm-7.6 18.6c-4.4 0-7.5-2.8-7.5-7 0-4.2 3.1-7 7.5-7 4.3 0 7.5 2.8 7.5 7 0 4.2-3.2 7-7.5 7zm23.6-22.6c2.1 0 3.6-1.6 3.6-3.6 0-1.9-1.5-3.3-3.6-3.3-2.2 0-3.7 1.5-3.7 3.4 0 2 1.5 3.5 3.7 3.5zm-2.9 28.6h5.7v-24.6h-5.7zm27.2-24.8c-3.6 0-6.6 1.2-8.5 3.4v-3.1h-5.4v24.5h5.7v-12.4c0-4.9 2.8-7.4 6.9-7.4 3.6 0 5.8 2.1 5.8 6.5v13.3h5.8v-14c0-7.4-4.4-10.8-10.3-10.8zm48.6-9.3v12.6c-2-2.2-4.8-3.3-7.9-3.3-7.2 0-12.5 4.9-12.5 12.6 0 7.6 5.3 12.6 12.5 12.6 3.3 0 6.2-1.2 8.1-3.5v3.1h5.5v-34.1zm-7.2 29.5c-4.1 0-7.3-3-7.3-7.6 0-4.7 3.2-7.7 7.3-7.7 4.1 0 7.3 3 7.3 7.7 0 4.6-3.2 7.6-7.3 7.6zm43.6-7.5c0-7.7-5.2-12.7-12.4-12.7-7.3 0-12.7 5.2-12.7 12.6 0 7.3 5.3 12.6 13.6 12.6 4.2 0 7.6-1.4 9.9-4l-3.1-3.6c-1.8 1.8-3.9 2.7-6.7 2.7-4.3 0-7.3-2.3-8-5.9h19.3c0.1-0.6 0.1-1.2 0.1-1.7zm-12.4-8.1c3.8 0 6.5 2.4 6.9 6h-13.9c0.5-3.6 3.3-6 7-6zm31.9-4.6c-3.6 0-6.6 1.2-8.5 3.4v-3.1h-5.5v24.5h5.8v-12.4c0-4.9 2.7-7.4 6.8-7.4 3.7 0 5.9 2.1 5.9 6.5v13.3h5.7v-14c0-7.4-4.3-10.8-10.2-10.8zm36.7 0.3v3.2c-2-2.4-5.1-3.5-8.5-3.5-7.1 0-12.5 4.7-12.5 11.8 0 7.1 5.4 11.9 12.5 11.9 3.3 0 6.2-1 8.2-3.2v1.3c0 4.9-2.4 7.4-7.8 7.4-3.4 0-6.9-1.1-9.1-2.9l-2.6 4.3c2.8 2.3 7.4 3.5 12 3.5 8.6 0 13.2-4.1 13.2-13v-20.8zm-7.6 18.6c-4.4 0-7.5-2.9-7.5-7.1 0-4.1 3.1-6.9 7.5-6.9 4.3 0 7.5 2.8 7.5 6.9 0 4.2-3.2 7.1-7.5 7.1zm30.1-18.9c-4 0-7.8 1-10.4 3l2.2 4.2c1.8-1.5 4.7-2.4 7.5-2.4 4.1 0 6.1 2 6.1 5.3v0.4h-6.4c-7.4 0-10.2 3.2-10.2 7.3 0 4.3 3.6 7.4 9.2 7.4 3.7 0 6.3-1.2 7.7-3.4v3h5.4v-14.4c0-7-4.1-10.4-11.1-10.4zm-0.8 21c-3 0-4.7-1.4-4.7-3.4 0-1.8 1-3.3 4.9-3.3h6v2.9c-1 2.5-3.4 3.8-6.2 3.8zm33.2-21c-3.6 0-6.6 1.2-8.4 3.4v-3.1h-5.5v24.5h5.7v-12.4c0-4.9 2.8-7.4 6.9-7.4 3.7 0 5.8 2.1 5.8 6.5v13.3h5.8v-14c0-7.4-4.4-10.8-10.3-10.8zm52.8 18.4c-2 1.2-4.3 1.7-6.6 1.7-6.8 0-11.6-4.8-11.6-11.4 0-6.6 4.8-11.3 11.7-11.3 3.4 0 6.3 1.2 8.8 3.7l3.8-3.7c-3-3.4-7.5-5.2-12.9-5.2-10.1 0-17.5 6.9-17.5 16.5 0 9.7 7.4 16.6 17.4 16.6 4.5 0 9.2-1.4 12.6-4.1v-12.8h-5.7zm24 6.7c7.7 0 13.2-5.2 13.2-12.6 0-7.3-5.5-12.5-13.2-12.5-7.5 0-13 5.2-13 12.5 0 7.4 5.5 12.6 13 12.6zm0-4.9c-4.1 0-7.2-3-7.2-7.7 0-4.7 3.1-7.7 7.2-7.7 4.2 0 7.4 3 7.4 7.7 0 4.7-3.2 7.7-7.4 7.7zm29.7 4.9c7.7 0 13.1-5.2 13.1-12.6 0-7.3-5.4-12.5-13.1-12.5-7.5 0-13 5.2-13 12.5 0 7.4 5.5 12.6 13 12.6zm0-4.9c-4.1 0-7.3-3-7.3-7.7 0-4.7 3.2-7.7 7.3-7.7 4.2 0 7.3 3 7.3 7.7 0 4.7-3.1 7.7-7.3 7.7zm37.6-20v3.3c-2.1-2.4-5.1-3.5-8.6-3.5-7 0-12.4 4.7-12.4 11.8 0 7.1 5.4 11.9 12.4 11.9 3.4 0 6.3-1.1 8.3-3.3v1.3c0 5-2.4 7.5-7.8 7.5-3.4 0-6.9-1.2-9.1-3l-2.6 4.4c2.8 2.3 7.4 3.5 12 3.5 8.6 0 13.2-4.1 13.2-13v-20.9zm-7.6 18.6c-4.4 0-7.5-2.8-7.5-7 0-4.2 3.1-7 7.5-7 4.3 0 7.4 2.8 7.4 7 0 4.2-3.1 7-7.4 7zm20.6 6h5.8v-34.1h-5.8zm36.4-12.2c0-7.7-5.2-12.7-12.4-12.7-7.3 0-12.7 5.3-12.7 12.6 0 7.3 5.3 12.6 13.6 12.6 4.2 0 7.7-1.4 9.9-4l-3.1-3.5c-1.8 1.7-3.9 2.6-6.7 2.6-4.3 0-7.2-2.3-7.9-5.9h19.2c0.1-0.5 0.1-1.2 0.1-1.7zm-12.4-8.1c3.8 0 6.5 2.5 7 6h-14c0.6-3.6 3.3-6 7-6z"/>
</svg>