<svg width="750" height="750" viewBox="0 0 750 750" fill="none" xmlns="http://www.w3.org/2000/svg">
<mask id="path-1-inside-1_202_84" fill="white">
<rect width="750" height="750" rx="30"/>
</mask>
<rect width="750" height="750" rx="30" fill="#FFBC0E" stroke="black" stroke-width="80" stroke-linejoin="round" mask="url(#path-1-inside-1_202_84)"/>
<path d="M144.58 269.89H231.79V311.2H144.58V269.89ZM148.36 376H94.9V187H243.13V228.31H148.36V376ZM265.702 376V175.66H317.002V376H265.702ZM411.901 378.43C400.021 378.43 389.311 376.09 379.771 371.41C370.411 366.73 363.031 359.44 357.631 349.54C352.411 339.46 349.801 326.77 349.801 311.47V229.66H401.101V303.1C401.101 314.44 403.171 322.54 407.311 327.4C411.631 332.26 417.661 334.69 425.401 334.69C430.441 334.69 435.031 333.52 439.171 331.18C443.311 328.84 446.641 325.15 449.161 320.11C451.681 314.89 452.941 308.23 452.941 300.13V229.66H504.241V376H455.371V334.69L464.821 346.3C459.781 357.1 452.491 365.2 442.951 370.6C433.411 375.82 423.061 378.43 411.901 378.43ZM613.964 378.43C596.684 378.43 581.564 375.19 568.604 368.71C555.824 362.05 545.834 353.05 538.634 341.71C531.614 330.19 528.104 317.14 528.104 302.56C528.104 287.98 531.524 275.02 538.364 263.68C545.384 252.16 555.014 243.25 567.254 236.95C579.494 230.47 593.264 227.23 608.564 227.23C622.964 227.23 636.104 230.2 647.984 236.14C659.864 241.9 669.314 250.45 676.334 261.79C683.354 273.13 686.864 286.9 686.864 303.1C686.864 304.9 686.774 306.97 686.594 309.31C686.414 311.65 686.234 313.81 686.054 315.79H570.224V288.79H658.784L639.344 296.35C639.524 289.69 638.264 283.93 635.564 279.07C633.044 274.21 629.444 270.43 624.764 267.73C620.264 265.03 614.954 263.68 608.834 263.68C602.714 263.68 597.314 265.03 592.634 267.73C588.134 270.43 584.624 274.3 582.104 279.34C579.584 284.2 578.324 289.96 578.324 296.62V304.45C578.324 311.65 579.764 317.86 582.644 323.08C585.704 328.3 590.024 332.35 595.604 335.23C601.184 337.93 607.844 339.28 615.584 339.28C622.784 339.28 628.904 338.29 633.944 336.31C639.164 334.15 644.294 330.91 649.334 326.59L676.334 354.67C669.314 362.41 660.674 368.35 650.414 372.49C640.154 376.45 628.004 378.43 613.964 378.43Z" fill="black"/>
<path d="M167.78 417.23C179.12 417.23 189.38 419.57 198.56 424.25C207.74 428.75 214.94 435.77 220.16 445.31C225.56 454.85 228.26 467.18 228.26 482.3V566H176.96V490.67C176.96 480.23 174.8 472.67 170.48 467.99C166.34 463.13 160.49 460.7 152.93 460.7C147.53 460.7 142.58 461.96 138.08 464.48C133.58 466.82 130.07 470.51 127.55 475.55C125.03 480.59 123.77 487.16 123.77 495.26V566H72.47V419.66H121.34V461.24L111.89 449.09C117.47 438.47 125.12 430.55 134.84 425.33C144.56 419.93 155.54 417.23 167.78 417.23ZM325.808 568.43C307.088 568.43 292.508 563.84 282.068 554.66C271.628 545.3 266.408 531.26 266.408 512.54V386.99H317.708V512C317.708 517.22 319.148 521.36 322.028 524.42C324.908 527.3 328.598 528.74 333.098 528.74C339.218 528.74 344.438 527.21 348.758 524.15L361.448 560.06C357.128 562.94 351.818 565.01 345.518 566.27C339.218 567.71 332.648 568.43 325.808 568.43ZM245.078 463.4V425.06H351.188V463.4H245.078ZM453.691 568.43C436.411 568.43 421.291 565.19 408.331 558.71C395.551 552.05 385.561 543.05 378.361 531.71C371.341 520.19 367.831 507.14 367.831 492.56C367.831 477.98 371.251 465.02 378.091 453.68C385.111 442.16 394.741 433.25 406.981 426.95C419.221 420.47 432.991 417.23 448.291 417.23C462.691 417.23 475.831 420.2 487.711 426.14C499.591 431.9 509.041 440.45 516.061 451.79C523.081 463.13 526.591 476.9 526.591 493.1C526.591 494.9 526.501 496.97 526.321 499.31C526.141 501.65 525.961 503.81 525.781 505.79H409.951V478.79H498.511L479.071 486.35C479.251 479.69 477.991 473.93 475.291 469.07C472.771 464.21 469.171 460.43 464.491 457.73C459.991 455.03 454.681 453.68 448.561 453.68C442.441 453.68 437.041 455.03 432.361 457.73C427.861 460.43 424.351 464.3 421.831 469.34C419.311 474.2 418.051 479.96 418.051 486.62V494.45C418.051 501.65 419.491 507.86 422.371 513.08C425.431 518.3 429.751 522.35 435.331 525.23C440.911 527.93 447.571 529.28 455.311 529.28C462.511 529.28 468.631 528.29 473.671 526.31C478.891 524.15 484.021 520.91 489.061 516.59L516.061 544.67C509.041 552.41 500.401 558.35 490.141 562.49C479.881 566.45 467.731 568.43 453.691 568.43ZM550.243 566V419.66H599.113V462.32L591.823 450.17C596.143 439.19 603.163 431 612.883 425.6C622.603 420.02 634.393 417.23 648.253 417.23V463.4C645.913 463.04 643.843 462.86 642.043 462.86C640.423 462.68 638.623 462.59 636.643 462.59C626.203 462.59 617.743 465.47 611.263 471.23C604.783 476.81 601.543 485.99 601.543 498.77V566H550.243Z" fill="black"/>
</svg>
