<svg xmlns="http://www.w3.org/2000/svg" viewBox="0 0 400 300" width="406" height="306" class="illustration styles_illustrationTablet__1DWOa"><g id="_44_lunch_break_outline" data-name="#44_lunch_break_outline"><path d="M244.25,188.84s-.47-9.17.63-11.17,3.78-.88,4.09,3.9c0,0,11.64-10,13.85-8.9s6.45,6.16,5.35,8.9-14.79,13.76-14.79,13.76Z" fill="#ffc9b0"></path><path d="M253.38,196.33a1,1,0,0,1-.58-.19l-9.13-6.49a1,1,0,0,1-.42-.76c-.08-1.58-.43-9.56.75-11.71a2.52,2.52,0,0,1,2.76-1.41c1.13.25,2.39,1.41,3,3.87,9.48-7.95,12.56-8.37,13.55-7.87,2.4,1.2,7.21,6.75,5.84,10.17-1.15,2.84-12.78,12.3-15.1,14.17A1,1,0,0,1,253.38,196.33Zm-8.16-8,8.12,5.77c5.24-4.25,13.2-11.12,13.9-12.87.81-2-2.95-6.68-4.87-7.64-1.21-.19-7.63,4.37-12.75,8.77a1,1,0,0,1-1.65-.69c-.17-2.62-1.1-3.79-1.64-3.91-.25-.06-.45.19-.57.42C245.12,179.31,245.06,184.62,245.22,188.3Z" fill="#000000"></path><path d="M187.08,65.18c9.11-.59,18.94,3.47,25.84,8.82,10.57,8.2,15.76,20.21,16.34,33.35l1.57,35.13c.77,17.27,4.18,36.82-12.55,47.88-8.66,5.72-19.35,7.45-29.72,7.82-12.85.46-25.95-1-38.05-5.55-9.76-3.65-24-10.5-24.89-22.5-.46-6.63,3.74-12.56,6-18.81,4.8-13.16,1-27.82,2.58-41.73,1.66-14.37,15.48-44.85,34.65-38.85a7.2,7.2,0,0,0,3,.63,6.21,6.21,0,0,0,2.88-1.62A22,22,0,0,1,187.08,65.18Z" fill="#725858"></path><path d="M184.14,199.26a96.7,96.7,0,0,1-34-5.7c-16.29-6.08-24.88-13.94-25.54-23.36-.34-4.94,1.75-9.47,3.77-13.85.82-1.76,1.66-3.58,2.31-5.37,2.88-7.89,2.59-16.21,2.28-25a110.92,110.92,0,0,1,.25-16.5c1.25-10.84,9.08-29.83,20.53-37.26,5-3.25,10.17-4.06,15.41-2.42l.58.19a3.17,3.17,0,0,0,4.1-.82l.24-.19A22.87,22.87,0,0,1,187,64.19h0c10.12-.66,20.33,4.22,26.51,9,10.31,8,16.09,19.79,16.73,34.09l1.57,35.13c.09,1.95.21,3.92.33,5.91,1,16.09,2,32.72-13.33,42.85-7.54,5-17.14,7.52-30.23,8C187.1,199.23,185.61,199.26,184.14,199.26ZM164,71a16.56,16.56,0,0,0-9.11,2.91C143.92,81,136.42,99.25,135.22,109.7a109.45,109.45,0,0,0-.24,16.2c.3,8.61.61,17.51-2.4,25.76-.68,1.88-1.54,3.73-2.37,5.53-2,4.34-3.9,8.44-3.59,12.87.6,8.56,8.75,15.84,24.24,21.63,11.08,4.14,23.76,6,37.67,5.49,12.7-.45,22-2.89,29.2-7.66,14.36-9.49,13.38-25.54,12.43-41.06-.12-2-.24-4-.33-5.94l-1.57-35.13c-.61-13.7-6.12-25-15.95-32.6-5.89-4.57-15.6-9.23-25.16-8.61h0a20.9,20.9,0,0,0-11.82,4.36l-.24.19A6.4,6.4,0,0,1,172,72.36a6.26,6.26,0,0,1-2.84-.49l-.54-.17A15.14,15.14,0,0,0,164,71Z" fill="#000000"></path><path d="M230.16,218.62a19.19,19.19,0,0,1-3-.24c-11.79-1.95-22.8-21-27-29.11l14.9-7.69-7.45,3.84,7.44-3.85c4.85,9.36,11.92,18.91,15,20.28h.08c2.73,0,8.46-6.9,11.61-14.09l15.38,6.67C256,197,246.17,218.62,230.16,218.62Z" fill="#ff69b1"></path><path d="M230.16,219.62a19.56,19.56,0,0,1-3.14-.26c-12.24-2-23.46-21.4-27.71-29.63a1,1,0,0,1,.43-1.35l14.9-7.7a1,1,0,0,1,1.34.43c4.94,9.54,11.61,18.24,14.3,19.73,2.06-.33,7.39-6.24,10.56-13.49a1,1,0,0,1,1.31-.51l15.38,6.67a1,1,0,0,1,.52,1.32C257,197.37,246.84,219.62,230.16,219.62ZM201.55,189.7c4.42,8.39,14.85,25.88,25.79,27.69a18,18,0,0,0,2.82.23c14.18,0,23.45-17.94,25.65-22.68l-13.55-5.88c-3.14,6.69-8.78,13.79-12.11,13.79H230a.92.92,0,0,1-.37-.09c-3.56-1.58-10.48-11.35-15-19.84l-6.56,3.39h0Z" fill="#000000"></path><path d="M211.07,177.67a15.42,15.42,0,0,0-13.55-7.44H176.64c-8.23,0-12.52,6.75-12.52,6.75-9.56,12.83-22.34,38.22-22.34,38.22l23.63,1.6v18.07h43.34V216.8S220.64,190.5,211.07,177.67Z" fill="#ff69b1"></path><path d="M208.75,235.87H165.41a1,1,0,0,1-1-1V217.73l-22.7-1.54a1,1,0,0,1-.82-1.44c.13-.26,12.92-25.62,22.43-38.37.15-.23,4.64-7.15,13.32-7.15h20.88a16.34,16.34,0,0,1,14.4,7.9c4.11,5.56,5,14,2.55,25.13A82.89,82.89,0,0,1,209.75,217v17.86A1,1,0,0,1,208.75,235.87Zm-42.34-2h41.34V216.8a1,1,0,0,1,.09-.41c.11-.26,11.53-25.92,2.43-38.13l-.09-.13a14.29,14.29,0,0,0-12.66-6.9H176.64c-7.56,0-11.63,6.22-11.67,6.28-8.19,11-18.83,31.38-21.61,36.79l22.12,1.5a1,1,0,0,1,.93,1Z" fill="#000000"></path><path d="M182.32,164.09h12.25a0,0,0,0,1,0,0v7.08a5.21,5.21,0,0,1-5.21,5.21h-1.83a5.21,5.21,0,0,1-5.21-5.21v-7.08a0,0,0,0,1,0,0Z" fill="#ffc9b0"></path><path d="M189.36,177.37h-1.84a6.21,6.21,0,0,1-6.2-6.2v-7.08a1,1,0,0,1,1-1h12.25a1,1,0,0,1,1,1v7.08A6.21,6.21,0,0,1,189.36,177.37Zm-6-12.28v6.08a4.2,4.2,0,0,0,4.2,4.2h1.84a4.21,4.21,0,0,0,4.21-4.2v-6.08Z" fill="#000000"></path><ellipse cx="153.43" cy="132.17" rx="11.9" ry="10.29" fill="#ffc9b0"></ellipse><path d="M153.43,143.46c-7.11,0-12.9-5.06-12.9-11.29s5.79-11.28,12.9-11.28,12.9,5.06,12.9,11.28S160.55,143.46,153.43,143.46Zm0-20.57c-6,0-10.9,4.16-10.9,9.28s4.89,9.29,10.9,9.29,10.9-4.17,10.9-9.29S159.44,122.89,153.43,122.89Z" fill="#000000"></path><ellipse cx="222.82" cy="132.17" rx="11.9" ry="10.29" fill="#ffc9b0"></ellipse><path d="M222.82,143.46c-7.12,0-12.9-5.06-12.9-11.29s5.78-11.28,12.9-11.28,12.9,5.06,12.9,11.28S229.93,143.46,222.82,143.46Zm0-20.57c-6,0-10.9,4.16-10.9,9.28s4.89,9.29,10.9,9.29,10.9-4.17,10.9-9.29S228.83,122.89,222.82,122.89Z" fill="#000000"></path><path d="M188.44,165.7h0a36,36,0,0,1-35.89-36V113c0-8.65,13.17-24.81,21.79-24.81,0,0,1.4,8.18,15,15.34,9.48,5,22.86,5.34,35-3.15V129.7A36,36,0,0,1,188.44,165.7Z" fill="#ffc9b0"></path><path d="M188.44,166.7a37,37,0,0,1-36.9-37V113c0-4.34,3-10.59,7.91-16.3,5.08-6,10.65-9.51,14.89-9.51a1,1,0,0,1,1,.83c0,.07,1.56,7.83,14.44,14.63,8.14,4.29,21.34,5.74,34-3.09a1,1,0,0,1,1.57.82V129.7A37,37,0,0,1,188.44,166.7ZM173.59,89.27C170,89.69,165.29,93,161,98c-4.51,5.28-7.43,11.17-7.43,15V129.7a34.9,34.9,0,1,0,69.8,0V102.28c-12.91,8.17-26.19,6.56-34.5,2.17C177.42,98.42,174.35,91.65,173.59,89.27Z" fill="#000000"></path><path d="M188.27,136.66a20.58,20.58,0,0,1-3.23-.26,1,1,0,0,1-.81-1.16,1,1,0,0,1,1.16-.81,15.74,15.74,0,0,0,5,0c.24-.92-1-4.53-2.8-7.93a1,1,0,0,1,1.78-.92c.91,1.74,3.79,7.59,2.81,9.76a1.74,1.74,0,0,1-1.18,1A11.49,11.49,0,0,1,188.27,136.66Z" fill="#000000"></path><path d="M162.76,116.28a2,2,0,0,1,0-4l15.85-.2a2,2,0,0,1,0,4l-15.85.2Z" fill="#000000"></path><path d="M215.57,116h0l-15.85-.1a2,2,0,0,1,0-4h0l15.85.1a2,2,0,0,1,0,4Z" fill="#000000"></path><path d="M168.14,127.08a1,1,0,0,1-.76-1.65c.1-.12,2.45-2.84,5.65-3a6.41,6.41,0,0,1,4.89,2.14,1,1,0,0,1-1.41,1.41,4.53,4.53,0,0,0-3.39-1.55c-2.32.08-4.2,2.25-4.22,2.27A1,1,0,0,1,168.14,127.08Z" fill="#000000"></path><path d="M211.17,127.08a1,1,0,0,1-.76-.35s-1.92-2.19-4.23-2.27A4.51,4.51,0,0,0,202.8,126a1,1,0,0,1-1.42-1.41,6.41,6.41,0,0,1,4.89-2.14c3.21.13,5.56,2.85,5.66,3a1,1,0,0,1-.12,1.41A1,1,0,0,1,211.17,127.08Z" fill="#000000"></path><path d="M174.33,202.89c.22.64,1,15.19,1,15.19s-19.12,10.44-26.23,11.3c-5.55.67-13.57-12.17-4.18-16.81C148.85,210.64,174.33,202.89,174.33,202.89Z" fill="#ff69b1"></path><path d="M148.68,230.41c-3.65,0-7.4-4.21-8.6-8.27-1.35-4.52.3-8.43,4.42-10.46,3.94-2,28.5-9.43,29.54-9.75a1,1,0,0,1,1.24.64c.21.64.7,8.76,1.06,15.45a1,1,0,0,1-.51.93c-.79.43-19.37,10.55-26.59,11.42A3.43,3.43,0,0,1,148.68,230.41Zm24.8-26.22c-5,1.54-24.77,7.64-28.1,9.28-4.4,2.17-4,6-3.39,8.1,1.13,3.8,4.54,7.12,7,6.82,6.18-.75,22.13-9.19,25.31-10.89C174.07,213.05,173.69,206.73,173.48,204.19Z" fill="#000000"></path><path d="M165.33,206.67a1,1,0,0,1-.92-.61c-.13-.33-3.33-8-.66-13a52.21,52.21,0,0,1,5.51-8.25,1,1,0,0,1,1.41-.12,1,1,0,0,1,.12,1.41,50.79,50.79,0,0,0-5.27,7.9c-2.23,4.17.71,11.24.74,11.31a1,1,0,0,1-.54,1.31A.88.88,0,0,1,165.33,206.67Z" fill="#000000"></path><rect x="197.9" y="178.27" width="17.35" height="34.8" transform="translate(413.15 391.35) rotate(-180)" fill="#fff"></rect><path d="M215.25,214.08H197.9a1,1,0,0,1-1-1V178.27a1,1,0,0,1,1-1h17.35a1,1,0,0,1,1,1v34.81A1,1,0,0,1,215.25,214.08Zm-16.35-2h15.35V179.27H198.9Z" fill="#000000"></path><polygon points="192.16 164.3 209.51 164.3 215.25 178.27 197.9 178.27 192.16 164.3" fill="#fff"></polygon><path d="M215.25,179.27H197.9a1,1,0,0,1-.93-.62l-5.74-14a1,1,0,0,1,.1-.94,1,1,0,0,1,.83-.44h17.35a1,1,0,0,1,.93.62l5.74,14a1,1,0,0,1-.1.94A1,1,0,0,1,215.25,179.27Zm-16.68-2h15.19l-4.92-12H193.65Z" fill="#000000"></path><polygon points="192.13 164.3 186.35 178.27 197.9 178.27 192.13 164.3" fill="#fff"></polygon><path d="M197.9,179.27H186.35a1,1,0,0,1-.83-.44,1,1,0,0,1-.09-.94l5.77-14a1,1,0,0,1,1.85,0l5.77,14a1,1,0,0,1-.09.94A1,1,0,0,1,197.9,179.27Zm-10.05-2h8.55l-4.28-10.35Z" fill="#000000"></path><rect x="186.35" y="178.27" width="11.54" height="34.8" fill="#fff"></rect><path d="M197.9,214.08H186.35a1,1,0,0,1-1-1V178.27a1,1,0,0,1,1-1H197.9a1,1,0,0,1,1,1v34.81A1,1,0,0,1,197.9,214.08Zm-10.55-2h9.55V179.27h-9.55Z" fill="#000000"></path><rect x="191.54" y="158.74" width="17.98" height="5.56" fill="#ffbc0e"></rect><path d="M209.51,165.3h-18a1,1,0,0,1-1-1v-5.56a1,1,0,0,1,1-1h18a1,1,0,0,1,1,1v5.56A1,1,0,0,1,209.51,165.3Zm-17-2h16v-3.56h-16Z" fill="#000000"></path><path d="M203.7,177.28a1,1,0,0,1-1-.94l-1.58-26.06-8.64-2.73a1,1,0,0,1-.65-1.25,1,1,0,0,1,1.25-.66l9.3,2.94a1,1,0,0,1,.7.9l1.61,26.74a1,1,0,0,1-.93,1.06Z" fill="#000000"></path><rect x="201.92" y="187.48" width="13.33" height="17.62" fill="#ffbc0e"></rect><path d="M215.25,206.1H201.92a1,1,0,0,1-1-1V187.48a1,1,0,0,1,1-1h13.33a1,1,0,0,1,1,1V205.1A1,1,0,0,1,215.25,206.1Zm-12.33-2h11.33V188.48H202.92Z" fill="#000000"></path><path d="M174.51,204.59c2.42-5.38,7.69-9.18,12.05-13.08a1.22,1.22,0,0,1,.78-.41c.63,0,.88.82.89,1.45a13.31,13.31,0,0,1-.33,3.33,74.14,74.14,0,0,1,8.61-2.72,2.35,2.35,0,0,1,1.77,0,2.12,2.12,0,0,1,.81,1.53,14.84,14.84,0,0,1-.89,6.77,42.53,42.53,0,0,1-3.63,9c-1.67,2.72-19.22,7.59-19.22,7.59Z" fill="#ffc9b0"></path><path d="M175.35,219.08a1,1,0,0,1-.58-.19,1,1,0,0,1-.42-.75l-.84-13.49a1,1,0,0,1,.09-.47c2.07-4.61,6-8,9.88-11.32.82-.7,1.63-1.39,2.41-2.09a2.21,2.21,0,0,1,1.44-.67c1,0,1.87,1,1.9,2.42a13.78,13.78,0,0,1-.07,1.82c2.33-.83,4.72-1.56,7.11-2.15a3.29,3.29,0,0,1,2.53.15,3.08,3.08,0,0,1,1.27,2.23,15.73,15.73,0,0,1-.91,7.23,43.87,43.87,0,0,1-3.74,9.21c-1.78,2.91-16.81,7.2-19.81,8A.82.82,0,0,1,175.35,219.08Zm.17-14.3.75,12c8.1-2.31,16.57-5.39,17.44-6.82a41.3,41.3,0,0,0,3.54-8.76,14.16,14.16,0,0,0,.85-6.31c-.11-.63-.27-.8-.34-.84s-.76,0-1,.08a70.31,70.31,0,0,0-8.49,2.69,1,1,0,0,1-1-.18,1,1,0,0,1-.32-1,12.33,12.33,0,0,0,.31-3.09,1.23,1.23,0,0,0,0-.29c-.78.7-1.6,1.4-2.42,2.1C181.17,197.48,177.45,200.68,175.52,204.78Zm11.92-12.7Z" fill="#000000"></path><path d="M188.66,153.16a1,1,0,0,1-.66-1.75c2.28-2,3.33-3.89,3.13-5.62-.27-2.4-2.92-3.86-2.94-3.87a1,1,0,0,1,.94-1.76c.15.07,3.59,2,4,5.39.28,2.42-1,4.89-3.8,7.36A1,1,0,0,1,188.66,153.16Z" fill="#000000"></path><path d="M151.41,120.9s-4.56-18.46,6.45-34.31,39.15-17,50.12-10c17.15,11,16.36,23.79,16.36,23.79s4.17-35.36-37.26-35.23C149.71,65.3,140.37,96.08,151.41,120.9Z" fill="#ffbc0e"></path><path d="M151.41,121.9a1,1,0,0,1-.92-.6c-6.29-14.15-5.79-29.75,1.3-40.71,4.82-7.45,14.86-16.34,35.29-16.41h.24c13.48,0,23.64,3.73,30.19,11.07,9.43,10.58,7.89,24.69,7.82,25.28a1,1,0,0,1-2-.18c0-.12.49-12.35-15.9-22.89-10.94-7-38.26-5.42-48.76,9.7-10.61,15.28-6.35,33.32-6.3,33.5a1,1,0,0,1-.65,1.18A.91.91,0,0,1,151.41,121.9Zm35.91-55.72h-.24c-15.46,0-27.08,5.41-33.61,15.5-5.36,8.28-6.73,19.41-4,30.44A44.55,44.55,0,0,1,157,86c11.09-16,39.93-17.68,51.48-10.25,7.73,5,11.92,10.28,14.18,14.7a29.37,29.37,0,0,0-6.7-13.9C209.85,69.68,200.2,66.18,187.32,66.18Z" fill="#000000"></path><path d="M267.19,169.3c0,7.49-4.84,14-13.57,11.81-8.06,2.84-13.56-4.32-13.56-11.81s5.4-14.2,13.56-10.85C261.93,154.89,267.19,161.8,267.19,169.3Z" fill="#f56132"></path><path d="M250.09,182.75a9.65,9.65,0,0,1-5.6-1.79c-3.35-2.38-5.43-6.85-5.43-11.66s2-9,5.24-11.18c1.88-1.26,5-2.38,9.31-.75,4.32-1.71,7.42-.64,9.29.59,3.26,2.15,5.29,6.5,5.29,11.34,0,4.67-1.73,8.7-4.73,11a11.27,11.27,0,0,1-9.79,1.8A11.32,11.32,0,0,1,250.09,182.75Zm-.64-24.18a7.08,7.08,0,0,0-4,1.21c-2.69,1.8-4.36,5.45-4.36,9.52s1.8,8,4.59,10a8.07,8.07,0,0,0,7.64.85.92.92,0,0,1,.57,0c3.29.82,6.18.34,8.36-1.36,2.49-1.95,4-5.49,4-9.48,0-4.18-1.68-7.88-4.39-9.67-2.17-1.43-4.86-1.51-7.78-.26a1,1,0,0,1-.78,0A10,10,0,0,0,249.45,158.57Z" fill="#000000"></path><path d="M253.62,162.44a1,1,0,0,1-1-1c0-.33-.09-8,4.08-10.27a1,1,0,0,1,1.36.4,1,1,0,0,1-.41,1.36c-2.57,1.39-3.06,6.59-3,8.47a1,1,0,0,1-1,1Z" fill="#000000"></path><path d="M255.4,164.74a1,1,0,0,1-.86-.49,3.33,3.33,0,0,0-3.77-1.85,1,1,0,0,1-.57-1.92,5.39,5.39,0,0,1,6.06,2.75,1,1,0,0,1-.35,1.37A1,1,0,0,1,255.4,164.74Z" fill="#000000"></path><rect x="225.57" y="223.07" width="44.11" height="11.81" fill="#70cc40"></rect><path d="M269.68,235.87H225.57a1,1,0,0,1-1-1v-11.8a1,1,0,0,1,1-1h44.11a1,1,0,0,1,1,1v11.8A1,1,0,0,1,269.68,235.87Zm-43.11-2h42.11v-9.8H226.57Z" fill="#000000"></path><rect x="213.71" y="223.07" width="11.87" height="11.81" transform="translate(439.28 457.94) rotate(180)" fill="#70cc40"></rect><path d="M225.57,235.87H213.71a1,1,0,0,1-1-1v-11.8a1,1,0,0,1,1-1h11.86a1,1,0,0,1,1,1v11.8A1,1,0,0,1,225.57,235.87Zm-10.86-2h9.86v-9.8h-9.86Z" fill="#000000"></path><rect x="188.14" y="222.18" width="44.11" height="3.89" transform="translate(-65.64 88.75) rotate(-20.7)" fill="#70cc40"></rect><path d="M190.25,234.74a1,1,0,0,1-.93-.65l-1.38-3.63a1,1,0,0,1,0-.77,1,1,0,0,1,.56-.52l41.26-15.59a1,1,0,0,1,1.29.58l1.37,3.64a1,1,0,0,1,0,.76,1,1,0,0,1-.56.53l-41.26,15.59A1.13,1.13,0,0,1,190.25,234.74Zm-.08-4.05.67,1.76,39.39-14.88-.67-1.77Z" fill="#000000"></path><path d="M276.42,235.87H139.29a1,1,0,1,1,0-2H276.42a1,1,0,0,1,0,2Z" fill="#000000"></path></g></svg>